Coordinates
version=1
nRows=19
nColumns=36
inDegrees=yes

Units are S.I. units (second, meters, Newtons, ...)
If the header above contains a line with 'inDegrees', this indicates whether rotational values are in degrees (yes) or radians (no).

endheader
time	pelvis_tilt	pelvis_list	pelvis_rotation	pelvis_tx	pelvis_ty	pelvis_tz	hip_flexion_r	hip_adduction_r	hip_rotation_r	knee_angle_r	knee_angle_r_beta	ankle_angle_r	subtalar_angle_r	mtp_angle_r	hip_flexion_l	hip_adduction_l	hip_rotation_l	knee_angle_l	knee_angle_l_beta	ankle_angle_l	subtalar_angle_l	mtp_angle_l	lumbar_extension	lumbar_bending	lumbar_rotation	arm_flex_r	arm_add_r	arm_rot_r	elbow_flex_r	pro_sup_r	arm_flex_l	arm_add_l	arm_rot_l	elbow_flex_l	pro_sup_l
      0.00000000	      1.80102167	      0.67721887	      4.16094545	     -0.05636103	      0.93460935	     -0.04402092	     -4.98663169	     -0.33528200	     -3.78531611	      0.93763210	      0.01636477	      2.71831906	     -6.90986708	     -7.85284827	     -2.42454750	     -2.59564772	      1.68189560	      1.88098399	      0.03282936	      6.85960766	     -2.89078706	     -7.85284827	     -4.02877453	      2.01584389	      8.71439519	     62.33636075	      7.71514432	     40.04856550	    143.78548827	     88.56441765	     81.50478721	     15.90827012	     70.39999601	    108.76174100	    101.17006398
      0.01666670	     -0.41065582	      0.25579824	      2.77677628	     -0.05620716	      0.93172346	     -0.04426801	     -1.87761040	     -0.11482853	     -2.65173966	      1.31542168	      0.02295844	      4.52828152	     -5.34803423	     -7.57795361	     -0.16578122	     -2.63696189	      1.44212151	      1.47040073	      0.02566333	      5.42900378	     -2.59400995	     -7.57795361	     -1.47163443	      2.83080771	      7.83595908	     64.91759872	     10.89261897	     39.42041348	    144.42452994	     95.84687818	     84.73721931	     13.30529598	     69.16205352	    111.09120877	     98.19367112
      0.03333330	     -1.30572792	      0.51129705	      2.04586271	     -0.05774579	      0.93372449	     -0.04350896	     -0.70237008	     -0.46680036	     -2.74381983	      1.26812477	      0.02213295	      4.63856213	     -4.87325537	     -7.52495040	      0.93933806	     -2.35849711	      0.61359312	      1.37243396	      0.02395349	      4.54792650	     -2.26586332	     -7.52495040	     -0.68951829	      2.49599313	      8.42159701	     67.15916105	     11.17941674	     40.65897799	    146.36086691	     99.31781990	     85.51913262	     13.48286916	     70.02781296	    112.51185740	     99.63381882
      0.05000000	     -1.55332928	      0.85655991	      1.75470051	     -0.05684750	      0.93623814	     -0.04291521	     -0.51817372	     -0.87097964	     -2.70878993	      1.09707556	      0.01914758	      4.98477991	     -4.11069197	     -7.50764253	      1.02029448	     -2.00254710	      0.13980025	      0.95959278	      0.01674805	      3.86198795	     -2.01098989	     -7.50764253	     -0.93229370	      2.04598814	      8.62773429	     67.74511072	     10.83082010	     39.81560416	    147.04140331	    100.12556902	     85.99824392	     14.17276099	     70.93169925	    113.11219340	    100.65861443
      0.06666670	     -1.90900662	      1.01266009	      1.41272977	     -0.05982263	      0.93550863	     -0.04318663	     -0.05920047	     -1.05396661	     -2.52997411	      0.97501020	      0.01701714	      4.94992442	     -3.91710811	     -7.50183677	      1.37361729	     -1.80902491	     -0.09109583	      0.80646532	      0.01407548	      3.75648387	     -1.81845702	     -7.50183677	     -0.99683775	      1.93319847	      9.39008241	     68.62087238	     10.37272538	     42.47725627	    147.15241163	    100.81193479	     85.83955398	     14.22090136	     71.78612521	    113.05953211	    100.51251041
      0.08333330	     -2.13208235	      1.10752314	      1.29765757	     -0.06092435	      0.93345040	     -0.04368830	      0.26966562	     -1.16616536	     -2.25881207	      0.86366776	      0.01507385	      4.77168859	     -3.95948916	     -7.50021306	      1.63044328	     -1.65717334	     -0.04974644	      0.71021767	      0.01239564	      3.73239307	     -1.94257818	     -7.50021306	     -1.33586823	      1.84969318	      9.43306368	     69.73566419	     10.23157494	     44.05905298	    146.86047755	    101.46515914	     85.90539475	     14.17073601	     71.72378475	    114.22553791	    100.02578402
      0.10000000	     -2.32447976	      1.19636974	      1.11948700	     -0.06142650	      0.93318469	     -0.04411013	      0.54804698	     -1.32139092	     -2.06507000	      0.89060654	      0.01554402	      4.80570333	     -3.77146640	     -7.50001294	      1.84332179	     -1.52393235	      0.04385305	      0.66118777	      0.01153990	      3.73418950	     -2.06956070	     -7.50001294	     -1.49630904	      1.77822670	      9.78067873	     69.94154297	      9.66696533	     44.00079340	    146.14801609	    100.86368794	     86.20348471	     14.13855732	     71.70792060	    114.06045203	     98.41236587
      0.11666670	     -2.36498672	      1.20199925	      1.07189657	     -0.06174045	      0.93238833	     -0.04396768	      0.64492788	     -1.34197862	     -1.66120150	      0.89685132	      0.01565301	      4.56629871	     -3.98867355	     -7.50000091	      1.91790987	     -1.50488789	      0.11976819	      0.64331717	      0.01122800	      3.76790345	     -2.27818489	     -7.50000091	     -1.63711132	      1.76984206	     10.23131106	     70.67663187	      9.31410458	     44.44713511	    145.99538055	     99.95684610	     86.71729995	     14.25274013	     71.65166932	    113.42432750	     97.45935820
      0.13333330	     -2.38296985	      1.19086961	      1.04873042	     -0.06317717	      0.93353859	     -0.04435758	      0.75652161	     -1.36658266	     -1.57065301	      0.91612991	      0.01598948	      4.23763325	     -4.09416622	     -7.49999995	      1.96088953	     -1.50979597	      0.39174955	      0.63751262	      0.01112669	      3.61574733	     -2.67028227	     -7.49999995	     -1.66403103	      1.78104221	      9.79424606	     70.69485608	     10.24898384	     45.51191026	    145.74928844	     99.86692787	     86.80342516	     14.10666805	     71.94999423	    112.73715167	     96.10553902
      0.15000000	     -2.43656945	      1.16301075	      0.97038973	     -0.06335535	      0.93121502	     -0.04465177	      0.94021837	     -1.36381137	     -1.46398453	      0.96226980	      0.01679478	      4.19998392	     -4.15361528	     -7.49999989	      2.02935376	     -1.50865304	      0.46087989	      0.65689642	      0.01146501	      3.75137938	     -2.64860683	     -7.49999989	     -1.69334176	      1.84810832	      9.22644643	     70.97189452	     11.22121492	     45.60388462	    145.49990087	     99.32685697	     87.28110577	     13.74679273	     71.82190858	    112.16852446	     94.28849581
      0.16666670	     -2.46483297	      1.11057963	      0.98510062	     -0.06009935	      0.93400494	     -0.04423862	      0.95903468	     -1.31710552	     -1.28102523	      0.95509758	      0.01666960	      4.02117588	     -4.37866155	     -7.49999988	      1.96905266	     -1.57562158	      0.73389981	      0.66650266	      0.01163267	      3.71774458	     -2.89117525	     -7.49999988	     -1.49078830	      1.90996027	      8.63541811	     70.69031344	     12.05962937	     45.68839948	    145.33472963	     99.34359849	     86.92622676	     13.30632939	     71.98695354	    111.67671109	     91.48801652
      0.18333330	     -2.51505633	      1.06728611	      0.90119483	     -0.05965912	      0.93144102	     -0.04470296	      1.05604604	     -1.28953566	     -1.21486013	      0.97909538	      0.01708844	      4.06184267	     -4.46145434	     -7.49999987	      1.94294633	     -1.61130658	      0.86087971	      0.67037251	      0.01170021	      3.96331026	     -2.92354524	     -7.49999987	     -0.87794875	      2.03737739	      8.41149270	     70.43595067	     12.78170396	     47.04663603	    145.45016161	     98.91744971	     86.50169540	     12.87097875	     71.99697093	    112.16569285	     91.02024883
      0.20000000	     -2.53465884	      1.07022059	      0.68236858	     -0.05782653	      0.93378137	     -0.04403663	      1.08039016	     -1.28185660	     -0.95408361	      0.96924673	      0.01691655	      3.86389612	     -4.56313386	     -7.49999987	      1.84360401	     -1.62141652	      0.85977330	      0.67863165	      0.01184436	      3.99902083	     -2.93331732	     -7.49999987	     -0.32375751	      2.05083869	      8.64759685	     70.35935355	     12.98010076	     48.87888169	    145.48999745	     98.92891782	     85.78126031	     12.50616594	     72.07611684	    113.30276442	     90.35389368
      0.21666670	     -2.52673977	      1.04596991	      0.63646184	     -0.05485152	      0.93349685	     -0.04504516	      0.98960586	     -1.26401772	     -1.01064176	      0.98365705	      0.01716805	      3.96290828	     -4.28002955	     -7.49999987	      1.67154971	     -1.64919650	      1.04746676	      0.66876685	      0.01167218	      4.02444490	     -3.12422544	     -7.49999987	     -0.17865693	      2.07743737	      8.23874961	     70.22682818	     13.06753603	     48.80999553	    145.43286124	     99.66505498	     85.50408935	     12.76053298	     72.25393070	    114.01686544	     85.43049128
      0.23333330	     -2.57945819	      1.04220546	      0.42622074	     -0.05593139	      0.93271358	     -0.04540705	      1.01536936	     -1.27580272	     -0.73836116	      0.95846696	      0.01672840	      3.69707108	     -4.56955572	     -7.49999987	      1.61059253	     -1.64314173	      0.89471782	      0.64435743	      0.01124616	      4.08804979	     -3.04275614	     -7.49999987	     -0.07900439	      2.24198707	      7.67934861	     70.36029328	     13.91759393	     49.21008906	    145.31878508	     98.54166202	     85.47189285	     12.99926511	     72.14679565	    114.13011773	     88.16069317
      0.25000000	     -2.54001034	      1.04285627	      0.30616799	     -0.05220400	      0.93318298	     -0.04577699	      0.84871987	     -1.29168643	     -0.67782983	      0.92452617	      0.01613603	      3.58388934	     -4.51389075	     -7.49999987	      1.39962480	     -1.62737700	      0.85395396	      0.61733616	      0.01077455	      4.13686413	     -3.00378362	     -7.49999987	      0.17418048	      2.34951761	      7.13053181	     70.17855095	     14.86924213	     49.64920655	    145.48838167	     98.51316890	     85.17869345	     12.94125617	     72.27710302	    113.83202550	     87.30562706
      0.26666670	     -2.76449320	      1.03771259	      0.12959403	     -0.05042535	      0.93227147	     -0.04567798	      1.24176446	     -1.31651900	     -0.59677320	      1.45037128	      0.02531375	      3.79919958	     -4.53708424	     -7.49999987	      1.77433749	     -1.61057648	      0.66117186	      1.07528021	      0.01876718	      4.47651799	     -3.01534837	     -7.49999987	      0.87621352	      2.65463508	      7.20677966	     70.00466725	     14.71586625	     49.82324185	    144.93846893	     95.28471248	     84.85812961	     12.83776878	     72.09270204	    114.45175980	     83.23252428
      0.28333330	     -2.48026345	      1.04129002	      0.10414166	     -0.04965424	      0.93527807	     -0.04528867	      0.50025747	     -1.31857162	     -0.40380469	      0.92052989	      0.01606628	      3.68989751	     -4.41704306	     -7.49999987	      1.04653037	     -1.57519865	      0.82355859	      0.60628885	      0.01058174	      4.35985993	     -3.02185018	     -7.49999987	      0.59014478	      2.51158949	      7.74924064	     70.80578719	     14.39940202	     49.65975074	    146.06426567	     99.19655916	     84.96128900	     13.89874737	     72.16551511	    114.64756044	     86.49490794
      0.30000000	     -2.39071805	      1.02976033	      0.07803549	     -0.04704421	      0.93265054	     -0.04527282	      0.23552461	     -1.32033677	     -0.16650330	      0.87190102	      0.01521754	      3.87034154	     -4.36752360	     -7.49999987	      0.77918348	     -1.56925921	      0.79293147	      0.59575546	      0.01039789	      4.55987437	     -2.99618969	     -7.49999987	      0.68262949	      2.56996538	      8.11542572	     71.20357662	     14.29752473	     48.80718406	    146.15863745	     98.88610706	     84.98855673	     14.33707286	     71.88335262	    114.74940156	     87.21843518
